# xmcd
# Track frame offsets:
# 150
# 19965
# 37732
# 54065
# 74332
# 90850
# 112630
# 129560
# 149155
# 163735
#
# Disc length: 2470 seconds
# Revision: 2
# Processed by: cddbd v1.4PL0 Copyright (c) Steve Scherf et al.
# Submitted via: VisiTrax 2.9.5.180 - For more info visit www.synapsa.com
#
DISCID=7909a40a
DTITLE=Rod Piazza - Vintage Live 1975
DYEAR=1900
DGENRE=Blues
TTITLE0=Oh Baby
TTITLE1=Key To The Highway
TTITLE2=Mellow Down Easy
TTITLE3=Standing Around Crying
TTITLE4=I Had My Fun
TTITLE5=Rocking Daddy
TTITLE6=Mean Old World
TTITLE7=Take A Walk With Me
TTITLE8=My Babe
TTITLE9=Third Degree
EXTD=ID3G:   0
EXTT0=
EXTT1=
EXTT2=
EXTT3=
EXTT4=
EXTT5=
EXTT6=
EXTT7=
EXTT8=
EXTT9=
PLAYORDER=
